<?xml version="1.0" encoding="UTF-8" standalone="no"?>
<!-- Created with Inkscape (http://www.inkscape.org/) -->

<svg
   width="71.417015mm"
   height="17.298744mm"
   viewBox="0 0 71.417015 17.298744"
   version="1.1"
   id="svg5"
   xml:space="preserve"
   inkscape:version="1.2.2 (732a01da63, 2022-12-09)"
   sodipodi:docname="ImJack.svg"
   xmlns:inkscape="http://www.inkscape.org/namespaces/inkscape"
   xmlns:sodipodi="http://sodipodi.sourceforge.net/DTD/sodipodi-0.dtd"
   xmlns="http://www.w3.org/2000/svg"
   xmlns:svg="http://www.w3.org/2000/svg"><sodipodi:namedview
     id="namedview7"
     pagecolor="#505050"
     bordercolor="#eeeeee"
     borderopacity="1"
     inkscape:showpageshadow="0"
     inkscape:pageopacity="0"
     inkscape:pagecheckerboard="0"
     inkscape:deskcolor="#505050"
     inkscape:document-units="mm"
     showgrid="false"
     inkscape:zoom="2.9540685"
     inkscape:cx="228.66769"
     inkscape:cy="316.85115"
     inkscape:window-width="1920"
     inkscape:window-height="1009"
     inkscape:window-x="-8"
     inkscape:window-y="-8"
     inkscape:window-maximized="1"
     inkscape:current-layer="layer1" /><defs
     id="defs2" /><g
     inkscape:label="Lag 1"
     inkscape:groupmode="layer"
     id="layer1"
     transform="translate(-24.356707,-67.26322)"><path
       style="fill:#F2E7D5;stroke-width:0.264583"
       d="m 60.31987,84.09167 c -4.081693,-1.45789 -4.929233,-6.244492 -1.519846,-8.583535 2.319647,-1.591418 5.935281,0.766828 5.416388,3.532765 -0.360291,1.92051 -2.716802,3.5242 -4.094861,2.78668 -0.887936,-0.47521 -0.520464,-0.92163 0.894617,-1.08682 2.905808,-0.33922 3.137297,-4.06559 0.310518,-4.998511 -4.158035,-1.372276 -5.803201,5.248691 -1.876049,7.550151 3.735022,2.18887 7.850492,0.0139 9.492686,-5.016883 0.846966,-2.594604 0.847273,-2.784676 0.0029,-1.781175 -1.780148,2.115588 -5.156581,0.708935 -5.137615,-2.140376 0.02496,-3.750767 5.207508,-7.090743 11.002502,-7.090743 h 2.068393 l -1.180542,0.595312 c -1.547603,0.780412 -2.187839,1.978935 -3.487025,6.527729 -2.256108,7.899226 -6.728894,11.549586 -11.89205,9.705406 z m 7.923466,-7.4518 c 2.048037,-1.434502 1.738879,-4.126603 -0.527116,-4.590048 -1.215784,-0.248655 -1.175012,-0.965249 0.05146,-0.904353 1.020842,0.05069 1.960616,1.078153 2.120519,1.953341 0.111957,0.612769 0.392089,0.550659 0.87063,-0.796708 0.562536,-1.583853 1.875528,-3.362748 3.082259,-4.175963 1.032803,-0.696006 0.795371,-0.726293 -1.643026,-0.209586 -4.400804,0.93255 -7.336946,3.687956 -7.336946,6.885316 0,1.87599 1.874017,2.894388 3.382224,1.838001 z M 26.58565,81.67922 c -4.073131,-2.44147 -2.20618,-9.58714 2.70812,-10.365205 0.735182,-0.116399 1.449505,-0.537368 2.441617,-1.438908 1.833293,-1.665929 4.654208,-2.619971 7.673237,-2.595113 1.630539,0.01342 1.904939,0.06938 1.37554,0.280476 -1.679324,0.669637 -2.373938,1.887669 -3.706559,6.49959 -2.023285,7.00216 -6.318088,10.12101 -10.491955,7.61916 z m 5.138818,-0.39165 c 1.086562,-0.66249 1.779952,-1.78296 2.456885,-3.970181 0.801891,-2.590968 0.934358,-2.809688 0.307813,-2.100901 -0.329006,0.372193 -0.518741,0.634792 -0.615366,0.733202 -0.109927,0.111957 -0.460616,0.511006 -0.751321,1.080834 -1.770562,3.470586 -6.287811,2.868576 -6.19096,-0.825067 0.02973,-1.133692 0.697858,-2.094386 1.145357,-1.646887 0.171891,0.171891 0.167427,0.600864 -0.01306,1.254518 -0.700311,2.536322 1.858715,3.939832 3.744728,2.05382 0.953461,-0.953462 0.980039,-1.343269 0.09158,-1.343269 -1.658861,0 -2.881673,-2.783269 -1.970673,-4.485489 0.428744,-0.801116 -1.629577,-0.124207 -2.65677,0.873718 -4.351634,4.227637 -0.531863,11.414262 4.451777,8.375702 z m 1.32449,-6.832755 c -0.175479,-2.116047 -1.640544,-3.415817 -2.276626,-2.019768 -0.699083,1.534319 -0.13352,3.422035 1.084336,3.619264 1.154247,0.186928 1.321795,-0.03784 1.19229,-1.599496 z m 1.647911,-1.139924 c 0.002,-1.101108 -0.333319,-1.469996 -1.451203,-1.596486 -1.055251,-0.119402 -1.289883,-1.015599 -0.265893,-1.015599 0.78571,0 2.248006,1.287344 2.248006,1.979051 0,0.237741 0.506015,-0.553128 1.124479,-1.757487 0.770021,-1.499494 1.416385,-2.387156 2.050521,-2.816013 l 0.926041,-0.62627 -1.322916,0.189675 c -3.953717,0.56687 -6.300473,3.150937 -6.057116,3.410202 0.740165,0.78855 1.226506,2.17614 1.447238,3.177736 l 0.247696,1.602481 0.52568,-0.79375 c 0.289124,-0.436562 0.526465,-1.225656 0.527424,-1.75354 z m 4.918571,8.594729 c -0.185294,-0.48287 0.564181,-4.979479 0.955513,-5.732766 0.357609,-0.688374 1.341705,-0.46889 1.554872,0.346785 0.142642,0.545813 0.205939,0.58408 0.362042,0.218873 0.59655,-1.39565 2.87359,-1.449048 3.326077,-0.078 l 0.290038,0.878823 0.845752,-0.881511 c 1.115843,-1.16302 2.111236,-1.386245 2.856816,-0.640664 0.608994,0.608994 0.603038,0.991431 -0.06229,3.99951 -0.622981,2.81662 1.637877,1.38697 2.768683,-1.750771 0.05769,-0.160079 0.188727,-0.213594 0.291195,-0.118924 0.102465,0.09467 -0.128985,0.794315 -0.514337,1.554775 -2.153241,4.24922 -5.275672,3.43011 -3.949368,-1.03604 0.226959,-0.764252 0.375787,-1.69736 0.330729,-2.073571 l -0.08192,-0.684019 -0.871498,0.735916 c -1.044349,0.881877 -1.828539,2.336794 -2.068565,3.837834 -0.255395,1.59715 -1.021209,2.26775 -1.681363,1.47231 -0.252603,-0.30437 -0.231418,-0.77837 0.0999,-2.23504 0.7283,-3.202093 0.506266,-4.229275 -0.676229,-3.128399 -0.949501,0.883965 -1.746657,2.312529 -1.953472,3.500769 -0.32322,1.85705 -1.396242,2.92509 -1.822565,1.81411 z m 34.302084,0.25777 c -1.675487,-0.67413 -1.224788,-4.820071 0.658096,-6.053784 1.030734,-0.675364 2.665251,-0.64248 3.238254,0.06515 l 0.46446,0.573583 0.501285,-0.663744 c 1.237255,-1.638235 1.672349,-0.402118 0.89816,2.551715 -1.161706,4.43235 -0.0241,4.41434 2.220767,-0.0352 1.250809,-2.479192 2.49315,-3.445167 3.827375,-2.975945 0.745715,0.262254 1.005382,1.409591 0.367167,1.622329 -0.210743,0.07025 -0.307157,-0.103918 -0.264583,-0.477952 0.178509,-1.568287 -1.585971,-0.282805 -2.137193,1.557018 -0.748519,2.49833 0.0067,3.93667 1.654503,3.1509 1.346457,-0.64208 2.177383,-1.93305 2.681214,-4.165666 1.176292,-5.212492 3.246765,-8.766143 5.550397,-9.52641 1.595861,-0.526682 1.973897,-0.179485 0.556281,0.510901 -1.923037,0.936529 -3.234936,3.333647 -4.138472,7.561868 -0.155485,0.727604 -0.353026,1.561042 -0.438984,1.852083 -0.0902,0.305418 0.315257,-0.0026 0.958914,-0.728378 1.213646,-1.368559 2.036704,-1.72923 2.896304,-1.269185 0.819398,0.438529 0.674936,1.197738 -0.395857,2.080376 -0.577802,0.476273 -0.836813,0.852541 -0.661458,0.960921 0.158515,0.098 0.288208,0.82594 0.288208,1.61771 0,2.08831 0.890304,1.67686 2.323846,-1.07395 0.454165,-0.87149 0.722466,-1.170973 0.786268,-0.87765 0.262905,1.20873 -1.976343,3.92036 -3.237418,3.92036 -1.17969,0 -1.552874,-0.52049 -1.327904,-1.85208 0.485407,-2.873093 -1.633197,-2.12144 -2.341423,0.83071 -0.09215,0.38413 -0.343728,0.76603 -0.559054,0.84865 -0.538519,0.20665 -1.218014,-0.53034 -1.00653,-1.09171 0.106362,-0.28232 -0.203036,-0.1286 -0.814197,0.40454 -1.557502,1.35865 -3.539607,1.16749 -4.387046,-0.4231 L 81.747762,80.43992 80.859201,81.41 c -1.110842,1.21276 -2.41659,1.25589 -2.968685,0.0981 l -0.335735,-0.70408 -0.770232,0.77023 c -0.743918,0.74392 -1.898576,0.9828 -2.867025,0.59315 z m 2.526507,-0.95101 c 1.339662,-1.426 1.76394,-3.781299 0.846433,-4.698804 -0.999468,-0.999469 -2.4433,0.526096 -2.774074,2.931114 -0.294762,2.14317 0.709621,3.06421 1.927641,1.76769 z m 15.280788,-3.488615 c 0.976503,-0.40801 1.180245,-0.855342 0.507206,-1.113611 -0.399187,-0.153183 -1.70633,0.826236 -1.70633,1.278523 0,0.297568 0.137515,0.278657 1.199124,-0.164912 z m -53.682075,-0.08618 c -0.328614,-0.531708 0.264054,-2.046397 0.832852,-2.128531 0.717574,-0.103617 0.720616,-0.0269 0.05097,1.285713 -0.551748,1.081515 -0.667866,1.192246 -0.883824,0.842818 z"
       id="path1006"
       sodipodi:nodetypes="sssssssscsscsssssssssssssssssssssssssssscsssssssssscssssscssccsccssssscsssssssscssssssssssscssssssssssssscssssssssssssscsscssssssssssssssss" /></g></svg>
